# xmcd
#
# Track frame offsets:
#	150
#	19585
#	37689
#	52219
#	71837
#	85826
#	107164
#	128186
#	148229
#	165875
#	181670
#	203481
#	225744
#	250532
#
# Disc length: 3624 seconds
#
# Revision: 0
# Processed by: cddbd v1.5.2PL0 Copyright (c) Steve Scherf et al.
# Submitted via: EZCDAudioConverter 2.0.5.1
#
DISCID=b00e260e
DTITLE=Rick Ross - Black Market
DYEAR=2015
DGENRE=
TTITLE0=Free Enterprise feat. John Legend
TTITLE1=Smile Mama, Smile feat. CeeLo Green
TTITLE2=One Of Us feat. NAS
TTITLE3=Silk Road
TTITLE4=Color Money
TTITLE5=Dope Dick
TTITLE6=Crocodile Python
TTITLE7=Ghostwritter
TTITLE8=Black Opium feat. DJ Premier
TTITLE9=Can't Say No feat. Mariah Carey
TTITLE10=Peace Sign
TTITLE11=Very Best feat. Mary J. Blige
TTITLE12=Sorry feat. Chris Brown
TTITLE13=D.O.P.E feat. Future
EXTD=
EXTT0=
EXTT1=
EXTT2=
EXTT3=
EXTT4=
EXTT5=
EXTT6=
EXTT7=
EXTT8=
EXTT9=
EXTT10=
EXTT11=
EXTT12=
EXTT13=
PLAYORDER=
